<svg width="40" height="40" viewBox="0 0 40 40" fill="none" xmlns="http://www.w3.org/2000/svg">
<circle cx="20" cy="20" r="20" fill="#E7E9F0"/>
<path fill-rule="evenodd" clip-rule="evenodd" d="M24.3084 8.3927C25.3764 8.3927 26.5047 8.76961 27.5383 9.18566L28.2948 9.49879C30.1036 10.2642 31.12 11.8704 31.9081 13.6347C33.1871 16.4978 34.0757 20.3147 34.3829 23.2169C34.5293 24.5941 34.5652 25.98 34.3025 26.9121C34.0197 27.908 33.0579 28.6126 32.1234 29.1663L31.6612 29.4316L31.1817 29.7013C30.9329 29.8404 30.6816 29.9777 30.428 30.113L29.6787 30.5044L28.6494 31.0219L27.8211 31.4336C27.6519 31.5257 27.4661 31.5826 27.2747 31.6009C27.0833 31.6191 26.8902 31.5984 26.7069 31.5398C26.5236 31.4813 26.3538 31.3862 26.2076 31.2601C26.0614 31.134 25.9418 30.9796 25.8558 30.8059C25.7698 30.6323 25.7192 30.443 25.7071 30.2492C25.695 30.0555 25.7215 29.8612 25.7851 29.678C25.8487 29.4948 25.9481 29.3264 26.0774 29.1827C26.2067 29.039 26.3632 28.923 26.5378 28.8416L27.6718 28.2762L26.8392 27.3934C24.8438 28.2197 22.4939 28.6879 19.9975 28.6879C17.5011 28.6879 15.1511 28.2212 13.1558 27.3934L12.3232 28.2748L13.4615 28.8402C13.6303 28.9253 13.7807 29.0431 13.9044 29.1869C14.028 29.3307 14.1224 29.4977 14.1821 29.6784C14.2418 29.859 14.2657 30.0498 14.2524 30.2398C14.2391 30.4297 14.1889 30.6152 14.1046 30.7856C14.0204 30.956 13.9037 31.1079 13.7613 31.2328C13.6189 31.3576 13.4535 31.4529 13.2746 31.5132C12.9133 31.635 12.5189 31.6069 12.1782 31.435L11.3972 31.0436C10.8202 30.7537 10.2416 30.4667 9.6703 30.1637L8.33813 29.4316L7.87733 29.1663C6.9428 28.6126 5.97956 27.908 5.6982 26.9121C5.43406 25.98 5.47138 24.5956 5.61637 23.2155C5.92357 20.3147 6.81217 16.4978 8.09122 13.6347C8.87933 11.8704 9.89568 10.2642 11.7044 9.49879C12.9045 8.99141 14.3587 8.3927 15.6909 8.3927C16.5565 8.3927 17.237 9.19726 17.1121 10.0555C18.0676 9.91452 19.0319 9.8433 19.9975 9.84236C20.9894 9.84236 21.9584 9.91484 22.8886 10.0569C22.861 9.85104 22.8769 9.64159 22.9354 9.44241C22.9939 9.24324 23.0937 9.05888 23.228 8.90155C23.3624 8.74422 23.5283 8.6175 23.7148 8.52977C23.9013 8.44205 24.1027 8.39533 24.3084 8.3927ZM15.332 17.8155C14.6658 17.8155 14.0268 18.0828 13.5556 18.5585C13.0845 19.0343 12.8199 19.6796 12.8199 20.3524C12.8199 21.0252 13.0845 21.6705 13.5556 22.1463C14.0268 22.622 14.6658 22.8893 15.332 22.8893C15.9983 22.8893 16.6373 22.622 17.1084 22.1463C17.5795 21.6705 17.8442 21.0252 17.8442 20.3524C17.8442 19.6796 17.5795 19.0343 17.1084 18.5585C16.6373 18.0828 15.9983 17.8155 15.332 17.8155ZM24.663 17.8155C23.9967 17.8155 23.3577 18.0828 22.8866 18.5585C22.4155 19.0343 22.1508 19.6796 22.1508 20.3524C22.1508 21.0252 22.4155 21.6705 22.8866 22.1463C23.3577 22.622 23.9967 22.8893 24.663 22.8893C25.3292 22.8893 25.9682 22.622 26.4393 22.1463C26.9105 21.6705 27.1751 21.0252 27.1751 20.3524C27.1751 19.6796 26.9105 19.0343 26.4393 18.5585C25.9682 18.0828 25.3292 17.8155 24.663 17.8155Z" fill="#081F62"/>
</svg>
