<svg width="40" height="40" viewBox="0 0 40 40" fill="none" xmlns="http://www.w3.org/2000/svg">
<circle cx="20" cy="20" r="20" fill="#E7E9F0"/>
<path d="M14.592 7.12384H25.408C29.5283 7.12384 32.8761 10.4716 32.8761 14.592V25.408C32.8761 27.3886 32.0893 29.2882 30.6888 30.6888C29.2882 32.0893 27.3886 32.8761 25.408 32.8761H14.592C10.4716 32.8761 7.12384 29.5283 7.12384 25.408V14.592C7.12384 12.6113 7.91066 10.7118 9.31121 9.31121C10.7118 7.91066 12.6113 7.12384 14.592 7.12384ZM14.3345 9.69907C13.1051 9.69907 11.9261 10.1874 11.0568 11.0568C10.1874 11.9261 9.69907 13.1051 9.69907 14.3345V25.6655C9.69907 28.2278 11.7721 30.3009 14.3345 30.3009H25.6655C26.8949 30.3009 28.0739 29.8125 28.9432 28.9432C29.8125 28.0739 30.3009 26.8949 30.3009 25.6655V14.3345C30.3009 11.7721 28.2278 9.69907 25.6655 9.69907H14.3345ZM26.76 11.6305C27.1868 11.6305 27.5962 11.8001 27.8981 12.1019C28.1999 12.4038 28.3695 12.8131 28.3695 13.24C28.3695 13.6669 28.1999 14.0763 27.8981 14.3781C27.5962 14.68 27.1868 14.8495 26.76 14.8495C26.3331 14.8495 25.9237 14.68 25.6219 14.3781C25.32 14.0763 25.1504 13.6669 25.1504 13.24C25.1504 12.8131 25.32 12.4038 25.6219 12.1019C25.9237 11.8001 26.3331 11.6305 26.76 11.6305ZM20 13.5619C21.7075 13.5619 23.345 14.2402 24.5524 15.4476C25.7598 16.655 26.4381 18.2925 26.4381 20C26.4381 21.7075 25.7598 23.345 24.5524 24.5524C23.345 25.7598 21.7075 26.4381 20 26.4381C18.2925 26.4381 16.655 25.7598 15.4476 24.5524C14.2402 23.345 13.5619 21.7075 13.5619 20C13.5619 18.2925 14.2402 16.655 15.4476 15.4476C16.655 14.2402 18.2925 13.5619 20 13.5619ZM20 16.1371C18.9755 16.1371 17.993 16.5441 17.2685 17.2685C16.5441 17.993 16.1371 18.9755 16.1371 20C16.1371 21.0245 16.5441 22.007 17.2685 22.7314C17.993 23.4559 18.9755 23.8628 20 23.8628C21.0245 23.8628 22.007 23.4559 22.7314 22.7314C23.4559 22.007 23.8628 21.0245 23.8628 20C23.8628 18.9755 23.4559 17.993 22.7314 17.2685C22.007 16.5441 21.0245 16.1371 20 16.1371Z" fill="#081F62"/>
</svg>
